{"title":"The.Game.1997.BRRip.720p.x264.AAC-PRiSTiNE [P2PDL]","uid":13141933,"size":798038651,"categoryP":"video","categoryS":"hd___movies","magnet":"?xt=urn:btih:fe57bef1482c35be40cf1eec726603c709861c59&amp;dn=The.Game.1997.BRRip.720p.x264.AAC-PRiSTiNE+%5BP2PDL%5D&amp;tr=udp%3A%2F%2Ftracker.leechers-paradise.org%3A6969&amp;tr=udp%3A%2F%2Fzer0day.ch%3A1337&amp;tr=udp%3A%2F%2Fopen.demonii.com%3A1337&amp;tr=udp%3A%2F%2Ftracker.coppersurfer.tk%3A6969&amp;tr=udp%3A%2F%2Fexodus.desync.com%3A6969","seeders":1,"leechers":1,"uploader":"VYTOP2PDL","files":7,"time":1451989541,"description":"____    ____ ____    ____ .___________.  ______   \r\n     /   /      /   / |           | /  __    \r\n    /   /      /   /  `---|  |----`|  |  |  | \r\n        /     _    _/       |  |     |  |  |  | \r\n       /        |  |         |  |     |  `--'  | \r\n    __/         |__|         |__|      ______/  \r\n                                                  \r\nPresenting Small Encodes with quality for years!\r\n                                                                                                   \r\n                                                                                                   \r\n\r\nThe.Game.1997.BRRip.720p.x264.AAC-PRiSTiNE\r\n\r\n\r\nGenre: Drama, Mystery, Thriller \nhttp://www.imdb.com/title/tt0119174/\r\n\r\n\r\nFormat                                   : MPEG-4\r\nFile size                                : 752 MiB\r\nDuration                                 : 2h 8mn\r\nOverall bit rate                         : 817 Kbps\r\n\r\nVideo\r\nFormat                                   : AVC\r\nBit rate                                 : 734 Kbps\r\nWidth                                    : 1 280 pixels\r\nHeight                                   : 544 pixels\r\nDisplay aspect ratio                     : 2.35:1\r\nFrame rate mode                          : Constant\r\nFrame rate                               : 23.976 fps\r\nBit depth                                : 8 bits\r\nStream size                              : 675 MiB (90%)\r\nWriting library                          : x264\r\n\r\nAudio\r\nFormat                                   : AAC\r\nBit rate mode                            : Variable\r\nBit rate                                 : 79.9 Kbps\r\nChannel(s)                               : 2 channels\r\nChannel positions                        : Front: L R\r\nSampling rate                            : 48.0 KHz\r\nStream size                              : 73.5 MiB (10%)\r\nLanguage                                 : English\r\n\r\nSubtitle                                 : Yes (English)\r\n\r\nScreen Shots: (Click to view)\r\n \nhttp://ititli.com/iK \nhttp://ititli.com/iV \nhttp://ititli.com/it \nhttp://ititli.com/iL \nhttp://ititli.com/id \nhttp://ititli.com/i0 \nhttp://ititli.com/iA \nhttp://ititli.com/il \nhttp://ititli.com/im\r\n\r\n----------------------------------------------------------------------------------------------------\r\n\r\n\r\nEncoder Notes: Looking For Early Access To Anything You Can Provide WEBDL, DVDScr, DVDR, BluRay,\r\nDirect Audio, Music Releases and Seedboxes. If You Got anything to offer please contact us.\r\n\r\nSupport us by donating BC - 1FgwdzPsd1y25Gea8wP1qni35uGCtmkRCD\r\n\r\nSend some love!\r\nFind us and join us!\r\n\r\nTry all new image sharing/hosting service at:  \nhttp://ititli.com/","torrent":{"xt":"urn:btih:fe57bef1482c35be40cf1eec726603c709861c59","amp;dn":"The.Game.1997.BRRip.720p.x264.AAC-PRiSTiNE+%5BP2PDL%5D","amp;tr":["udp%3A%2F%2Ftracker.leechers-paradise.org%3A6969","udp%3A%2F%2Fzer0day.ch%3A1337","udp%3A%2F%2Fopen.demonii.com%3A1337","udp%3A%2F%2Ftracker.coppersurfer.tk%3A6969","udp%3A%2F%2Fexodus.desync.com%3A6969"],"infoHash":"fe57bef1482c35be40cf1eec726603c709861c59","infoHashBuffer":{"type":"Buffer","data":[254,87,190,241,72,44,53,190,64,207,30,236,114,102,3,199,9,134,28,89]},"announce":[],"urlList":[]}}